<svg id="Capa_1" enable-background="new 0 0 508.7 508.7" height="100px" viewBox="0 0 508.7 508.7" width="100px" xmlns="http://www.w3.org/2000/svg"><g><g><path d="m443.741 250.884h-378.782v-230.609c0-6.627 5.373-12 12-12h354.783c6.627 0 12 5.373 12 12v230.609z" fill="#c3ddff"/><circle cx="340.862" cy="117.568" fill="#ffe177" r="60.913"/><path d="m353.359 177.19c-4.04.85-8.22 1.29-12.5 1.29-33.64 0-60.91-27.27-60.91-60.91s27.27-60.91 60.91-60.91c4.28 0 8.46.44 12.5 1.29-27.64 5.76-48.41 30.26-48.41 59.62s20.77 53.86 48.41 59.62z" fill="#ffd15b"/><path d="m404.659 303.7h-300.62l146.85-254.35c1.54-2.67 5.39-2.67 6.93 0z" fill="#7a6d79"/><path d="m266.849 65-137.81 238.7h-25l146.85-254.35c1.54-2.67 5.39-2.67 6.93 0z" fill="#685e68"/><path d="m101.959 8.27c-6.63 0-12 5.38-12 12v230.61h-25v-230.61c0-6.62 5.37-12 12-12z" fill="#a4ccff"/><path d="m306.839 134.25-.01.01c-3.58 3.03-7.87 5.32-14.36 5.32-19.17 0-19.17-20-38.34-20-15.54 0-18.48 13.14-29.25 18.11-2.52 1.17-5.46 1.89-9.1 1.89-6.31 0-10.54-2.16-14.06-5.07l49.17-85.16c1.54-2.67 5.39-2.67 6.93 0l9.03 15.65z" fill="#edf4ff"/><path d="m160.654 218.47v-18.075c0-6.627-5.373-12-12-12h-129.157c-6.627 0-12 5.373-12 12v288.033c0 6.627 5.373 12 12 12h469.707c6.627 0 12-5.373 12-12v-245.958c0-6.627-5.373-12-12-12h-316.55c-6.627 0-12-5.373-12-12z" fill="#ffe177"/><path d="m44.499 500.43h-25c-6.63 0-12-5.38-12-12v-288.04c0-6.62 5.37-12 12-12h25c-6.63 0-12 5.38-12 12v288.04c0 6.62 5.37 12 12 12z" fill="#ffd15b"/><path d="m266.849 65-41.97 72.69c-2.52 1.17-5.46 1.89-9.1 1.89-6.31 0-10.54-2.16-14.06-5.07l49.17-85.16c1.54-2.67 5.39-2.67 6.93 0z" fill="#dbeaff"/></g><g><path d="m407.91 492.93h-388.41c-2.481 0-4.5-2.019-4.5-4.5v-212.33c0-4.142-3.358-7.5-7.5-7.5s-7.5 3.358-7.5 7.5v212.33c0 10.752 8.748 19.5 19.5 19.5h388.41c4.142 0 7.5-3.358 7.5-7.5s-3.358-7.5-7.5-7.5z"/><path d="m489.2 222.97h-37.96v-202.7c0-10.752-8.748-19.5-19.5-19.5h-354.78c-10.752 0-19.5 8.748-19.5 19.5v160.62h-37.96c-10.752 0-19.5 8.748-19.5 19.5v40.71c0 4.142 3.358 7.5 7.5 7.5s7.5-3.358 7.5-7.5v-40.71c0-2.481 2.019-4.5 4.5-4.5h129.15c2.481 0 4.5 2.019 4.5 4.5v18.08c0 10.752 8.748 19.5 19.5 19.5h316.55c2.481 0 4.5 2.019 4.5 4.5v245.96c0 2.481-2.019 4.5-4.5 4.5h-46.29c-4.142 0-7.5 3.358-7.5 7.5s3.358 7.5 7.5 7.5h46.29c10.752 0 19.5-8.748 19.5-19.5v-245.96c0-10.752-8.747-19.5-19.5-19.5zm-340.55-42.08h-76.19v-160.62c0-2.481 2.019-4.5 4.5-4.5h354.78c2.481 0 4.5 2.019 4.5 4.5v202.7h-69.53l-21.447-37.147c35.681-2.279 64.017-32.012 64.017-68.253 0-37.727-30.693-68.42-68.42-68.42-23.342 0-44.441 11.596-56.932 30.438l-19.621-33.985c-2.047-3.55-5.863-5.755-9.957-5.755s-7.909 2.205-9.955 5.752l-81.626 141.379c-3.555-3.741-8.563-6.089-14.119-6.089zm147.95-49.353c-1.187.334-2.534.543-4.13.543-6.101 0-8.912-2.637-13.755-7.689-5.257-5.485-11.8-12.311-24.585-12.311-12.783 0-19.326 6.824-24.583 12.308-4.846 5.055-7.66 7.692-13.767 7.692-1.37 0-2.599-.135-3.751-.421l42.321-73.302zm-3.984-36.901c8.817-18.63 27.384-30.486 48.244-30.486 29.456 0 53.42 23.964 53.42 53.42 0 29.45-23.964 53.41-53.42 53.41-1.418 0-2.844-.062-4.267-.174zm-124.466 123.834v-10.811l36.241-62.771c3.492 1.479 7.232 2.192 11.389 2.192 12.791 0 19.335-6.826 24.594-12.312 4.844-5.052 7.655-7.688 13.755-7.688 6.101 0 8.913 2.637 13.756 7.69 5.257 5.484 11.799 12.31 24.584 12.31 4.289 0 8.144-.767 11.745-2.354l45.174 78.244h-176.738c-2.482 0-4.5-2.018-4.5-4.5z"/></g></g></svg>