<svg id="Capa_1" enable-background="new 0 0 512 512" height="100px" viewBox="0 0 512 512" width="100px" xmlns="http://www.w3.org/2000/svg"><g><g clip-rule="evenodd" fill-rule="evenodd"><path d="m106.208 224.167 3.147-57.572h61.399l3.146 57.572c7.568 35.887 38.155 37.049 38.155 73.078v185.104c0 12.19-9.978 22.168-22.167 22.168h-99.696c-12.189 0-22.139-9.978-22.139-22.168v-185.104c0-36.029 30.558-37.191 38.155-73.078z" fill="#b78b7a"/><path d="m146.488 166.595h24.265l3.146 57.572c7.568 35.887 38.155 37.049 38.155 73.078v185.104c0 12.19-9.978 22.168-22.167 22.168h-24.265c12.189 0 22.167-9.978 22.167-22.168v-185.104c0-36.029-30.586-37.191-38.155-73.078z" fill="#aa7a63"/><path d="m124.038 54.341h32.032c12.671 0 23.018 10.375 23.018 23.046v4.45c0 5.216-2.636 7.738-7.767 7.738h-62.561c-5.16 0-7.768-3.005-7.768-7.738v-4.45c0-12.67 10.375-23.046 23.046-23.046z" fill="#da4a54"/><path d="m131.805 54.341h24.265c12.671 0 23.018 10.375 23.018 23.046v4.45c0 5.216-2.636 7.738-7.767 7.738h-24.265c5.131 0 7.768-2.522 7.768-7.738v-4.45c-.001-12.67-10.348-23.046-23.019-23.046z" fill="#d82e3d"/><path d="m68.053 305.125h144.001v153.355h-144.001z" fill="#da4a54"/><path d="m140.054 427.668c20.155 0 36.596-20.608 36.596-45.865s-16.441-45.865-36.596-45.865c-20.183 0-36.624 20.607-36.624 45.865s16.441 45.865 36.624 45.865z" fill="#e28086"/><path d="m140.054 335.939c20.211 0 36.596 20.522 36.596 45.865 0 25.342-16.384 45.865-36.596 45.865-4.252 0-8.334-.906-12.132-2.579 14.258-6.265 24.463-23.273 24.463-43.286s-10.205-37.021-24.463-43.286c3.798-1.672 7.88-2.579 12.132-2.579z" fill="#dd636e"/><path d="m166.558 89.576h-53.008l-4.195 77.019h61.399z" fill="#ddc6be"/><path d="m166.558 89.576h-24.293l4.223 77.019h24.266z" fill="#ceb1a5" stroke="#ecc373" stroke-miterlimit="10" stroke-width=".227"/><path d="m410.142 474.185c0 16.668-13.664 30.332-30.331 30.332h-70.839c-16.668 0-30.331-13.663-30.331-30.332l66.359-7.058z" fill="#cbe2ff"/><path d="m410.142 474.185c0 16.668-13.664 30.332-30.331 30.332h-24.265c16.668 0 30.331-13.663 30.331-30.332z" fill="#bed8fb"/><path d="m245.901 142.556c-1.843 19.588-1.815 41.245 2.721 61.201 12.671 55.644 42.69 126.058 42.01 180.285-.708 54.227-12.018 75.487-11.99 90.143h131.5c.028-14.655-11.282-35.916-11.991-90.143-.681-54.227 29.339-124.641 42.01-180.285 4.535-19.956 4.564-41.613 2.721-61.201l-98.59-7.54z" fill="#ecbe6b"/><path d="m385.877 474.185h24.265c.028-14.655-11.282-35.916-11.991-90.143-.681-54.227 29.339-124.641 42.01-180.285 4.535-19.956 4.564-41.613 2.721-61.201h-24.265c1.843 19.588 1.814 41.245-2.721 61.201-12.671 55.644-42.719 126.058-42.01 180.285.709 54.228 12.019 75.488 11.991 90.143z" fill="#fdb343"/><path d="m258.487 79.116s-9.27 28.404-12.586 63.44h172.717l12.076-2.211 12.189 2.211c-3.316-35.036-12.586-63.44-12.586-63.44l-88.811-4.11z" fill="#ecf4ff"/><path d="m418.618 142.556h24.265c-3.316-35.036-12.586-63.44-12.586-63.44h-24.265c-.001 0 9.269 28.404 12.586 63.44z" fill="#ddeafb"/><path d="m281.845 28.745c2.466 0 4.847.368 7.171.85 4.564.936 7.285 0 11.083-3.854 4.677-4.763 10.686-8.419 17.858-8.419 4.508 0 8.618 1.389 12.246 3.486 4.167 2.438 6.095 2.807 9.808-1.644 5.783-6.945 14.287-11.65 24.038-11.65 9.978 0 18.936 4.648 24.406 12.103 5.272 7.172 2.636 5.754 12.104 5.811 19.361.143 35.065 15.704 35.065 35.094 0 6.832-1.956 13.209-5.329 18.595h-21.373c-4.961 0-7.768 3.005-7.768 7.768v64.035c0 8.334-6.832 15.165-15.165 15.165-8.362 0-15.165-6.831-15.165-15.165v-64.036c0-5.642-2.892-7.768-7.768-7.768h-64.914-39.657c-4.536-5.357-7.285-12.302-7.285-19.757.002-16.895 13.722-30.614 30.645-30.614z" fill="#fce8c6"/><path d="m344.094 15.053c5.414-4.621 12.303-7.54 19.956-7.54 9.978 0 18.936 4.648 24.406 12.103 5.272 7.172 2.636 5.754 12.104 5.84 19.361.113 35.065 15.703 35.065 35.064 0 6.832-1.956 13.209-5.329 18.595h-21.373c-.17 0-.312.028-.454.028 1.871-4.167 2.891-8.759 2.891-13.606 0-18.454-14.939-33.307-33.421-33.42-9.014-.057-6.491 1.275-11.508-5.556-5.045-6.86-13.209-11.253-22.337-11.508z" fill="#fed9a4"/><g fill="#fce8c6"><path d="m338.085 414.261c9.751 0 17.688-7.938 17.688-17.689s-7.937-17.689-17.688-17.689-17.688 7.938-17.688 17.689 7.937 17.689 17.688 17.689z"/><path d="m362.35 314.168c9.751 0 17.688-7.937 17.688-17.689 0-9.751-7.937-17.688-17.688-17.688-9.752 0-17.689 7.936-17.689 17.688s7.937 17.689 17.689 17.689z"/><path d="m309.256 232.274c11.707 0 21.232-9.524 21.232-21.231 0-11.679-9.525-21.232-21.232-21.232-11.679 0-21.231 9.553-21.231 21.232 0 11.706 9.552 21.231 21.231 21.231z"/></g><path d="m187.79 305.125h24.265v153.355h-24.265z" fill="#d82e3d"/></g><path d="m75.537 364.824c0 4.139-3.345 7.483-7.483 7.483-4.139 0-7.512-3.345-7.512-7.483v-67.579c0-22.139 9.666-32.485 19.957-43.512 7.341-7.88 15.08-16.186 18.255-30.558l6.888-126.086h-4.649c-4.139 0-7.512-3.345-7.512-7.512v-12.189c0-8.419 3.458-16.045 8.986-21.573 5.528-5.527 13.153-8.957 21.572-8.957h32.032c8.391 0 16.044 3.43 21.572 8.957 5.527 5.527 8.958 13.154 8.958 21.573v12.188c0 4.167-3.373 7.512-7.512 7.512h-4.649l6.888 126.086c3.175 14.373 10.913 22.678 18.284 30.558 10.29 11.027 19.928 21.373 19.928 43.512v161.236 23.868c0 8.165-3.316 15.591-8.702 20.949-5.357 5.386-12.784 8.702-20.949 8.702h-99.697c-8.164 0-15.563-3.316-20.948-8.702-5.358-5.358-8.703-12.784-8.703-20.949v-23.868-59.698c0-4.139 3.373-7.483 7.512-7.483s7.483 3.345 7.483 7.483v52.186h129.006v-138.331h-129.005zm54.057 24.491c-4.139 0-7.483-3.373-7.483-7.512s3.345-7.483 7.483-7.483h20.892c4.139 0 7.512 3.345 7.512 7.483 0 4.139-3.373 7.512-7.512 7.512zm179.662-207.016c7.937 0 15.109 3.232 20.325 8.419 5.188 5.216 8.419 12.387 8.419 20.325 0 7.937-3.231 15.108-8.419 20.324-5.216 5.188-12.388 8.419-20.325 8.419s-15.109-3.231-20.325-8.419c-5.188-5.216-8.391-12.388-8.391-20.324 0-7.938 3.203-15.108 8.391-20.325 5.216-5.188 12.388-8.419 20.325-8.419zm9.723 19.049c-2.495-2.495-5.924-4.025-9.723-4.025s-7.229 1.53-9.695 4.025c-2.494 2.466-4.025 5.896-4.025 9.694s1.531 7.229 4.025 9.723c2.466 2.466 5.896 4.025 9.695 4.025 3.798 0 7.228-1.559 9.723-4.025 2.467-2.494 4.026-5.925 4.026-9.723s-1.56-7.228-4.026-9.694zm43.371 69.931c6.945 0 13.238 2.834 17.802 7.399 4.563 4.535 7.398 10.857 7.398 17.801 0 6.945-2.835 13.267-7.398 17.802-4.564 4.565-10.857 7.399-17.802 7.399-6.974 0-13.267-2.834-17.831-7.399-4.563-4.535-7.37-10.857-7.37-17.802 0-6.944 2.807-13.266 7.37-17.801 4.564-4.565 10.857-7.399 17.831-7.399zm7.2 18.001c-1.843-1.843-4.394-3.005-7.2-3.005-2.835 0-5.358 1.162-7.229 3.005-1.842 1.842-2.976 4.394-2.976 7.199 0 2.807 1.134 5.358 2.976 7.2 1.871 1.843 4.394 3.005 7.229 3.005 2.806 0 5.357-1.162 7.2-3.005 1.842-1.842 2.976-4.394 2.976-7.2s-1.134-5.357-2.976-7.199zm-31.465 82.092c6.945 0 13.238 2.835 17.802 7.398 4.564 4.565 7.371 10.857 7.371 17.802 0 6.974-2.807 13.267-7.371 17.831-4.564 4.535-10.857 7.37-17.802 7.37-6.973 0-13.266-2.835-17.831-7.37-4.564-4.563-7.37-10.857-7.37-17.831 0-6.945 2.807-13.237 7.37-17.802 4.565-4.563 10.857-7.398 17.831-7.398zm7.2 18c-1.843-1.843-4.394-2.977-7.2-2.977-2.835 0-5.386 1.134-7.228 2.977s-2.976 4.393-2.976 7.2c0 2.835 1.134 5.357 2.976 7.2 1.843 1.872 4.394 3.005 7.228 3.005 2.806 0 5.357-1.134 7.2-3.005 1.842-1.843 2.976-4.365 2.976-7.2 0-2.807-1.134-5.358-2.976-7.2zm-63.44-368.14c3.147 0 6.265.397 9.269 1.163.595.142 1.191.311 1.786.481 2.069-2.949 4.677-5.528 7.653-7.597 4.961-3.43 10.97-5.471 17.405-5.471 4.706 0 9.185 1.077 13.182 2.977 1.049.51 2.069 1.077 3.033 1.672 2.551-3.203 5.584-5.981 9.014-8.221 6.009-3.939 13.181-6.236 20.863-6.236 7.795 0 15.081 2.382 21.147 6.436 4.564 3.032 8.419 7.029 11.31 11.707 1.361-.143 2.722-.199 4.054-.199 11.764 0 22.394 4.763 30.105 12.473 7.71 7.71 12.472 18.341 12.472 30.104 0 4.053-.567 7.994-1.644 11.736-.765 2.664-1.814 5.272-3.089 7.738 11.055 37.304 17.802 86.968 9.042 125.406-4.252 18.681-10.432 38.977-16.753 59.784-12.473 40.876-25.512 83.708-25.059 118.773.453 34.357 5.301 55.248 8.618 69.592 2.523 10.913 4.989 20.069 2.013 30.728-1.786 6.378-5.188 12.076-9.751 16.612-6.832 6.859-16.3 11.111-26.703 11.111h-70.839c-10.403 0-19.871-4.252-26.702-11.111-5.301-5.272-9.043-12.105-10.46-19.702-1.786-9.468.595-18.368 2.721-27.638 3.345-14.344 8.164-35.235 8.618-69.592.34-26.278-6.889-56.892-15.79-87.818-3.175-11.026-6.519-21.998-9.864-32.996-1.219-3.94 1.021-8.107 4.961-9.298 3.969-1.19 8.136 1.02 9.326 4.989 3.373 11.055 6.747 22.111 9.95 33.25 9.212 31.976 16.724 63.894 16.355 92.042-.453 36.114-5.499 57.856-8.957 72.767-.851 3.685-1.616 6.945-2.154 9.779h114.832c-.539-2.834-1.304-6.095-2.154-9.779-3.458-14.911-8.504-36.653-8.957-72.767-.482-37.333 12.898-81.327 25.683-123.28 6.236-20.437 12.331-40.422 16.498-58.735 3.827-16.867 4.309-35.065 3.146-52.073h-27.385c0 6.576-1.927 12.161-6.633 16.895-4.11 4.082-9.78 6.633-16.016 6.633-6.265 0-11.906-2.551-16.016-6.633-4.706-4.733-6.661-10.318-6.661-16.895h-110.553c-1.162 17.008-.68 35.206 3.146 52.073.907 3.94 1.871 7.909 2.919 11.906.964 3.741 2.098 7.908 3.345 12.358 1.134 3.997-1.191 8.136-5.188 9.242-3.969 1.105-8.107-1.219-9.213-5.188-1.134-3.997-2.268-8.192-3.43-12.671-1.077-4.195-2.098-8.334-3.005-12.359-8.731-38.325-2.041-87.591 8.901-124.838-1.729-2.552-3.118-5.272-4.195-8.136-1.502-4.11-2.324-8.504-2.324-13.068 0-10.517 4.252-20.041 11.168-26.958 6.89-6.887 16.443-11.168 26.96-11.168zm142.896 65.396h-16.101v48.417h25.937c-2.693-21.714-7.399-39.885-9.836-48.417zm-61.427 48.416v-48.416h-99.271c-2.438 8.532-7.143 26.704-9.836 48.417h109.107zm-75.857-98.136c-1.757-.425-3.628-.68-5.612-.68-6.378 0-12.161 2.607-16.356 6.774-4.195 4.195-6.775 9.979-6.775 16.356 0 2.777.51 5.443 1.389 7.909.567 1.53 1.304 3.005 2.126 4.365h108.597c4.139 0 7.483 3.345 7.483 7.483v63.44 8.363c0 2.098.879 3.997 2.268 5.414 1.389 1.389 3.317 2.239 5.414 2.239s3.997-.851 5.386-2.268c1.417-1.389 2.268-3.288 2.268-5.386v-8.363-63.44c0-4.139 3.373-7.483 7.512-7.483h24.69c.482-1.105.878-2.268 1.219-3.486.708-2.409 1.077-4.961 1.077-7.625 0-7.626-3.09-14.514-8.079-19.503s-11.878-8.078-19.503-8.078c-2.013 0-4.054.198-6.038.623-3.628 1.105-7.597-.708-9.071-4.28-1.786-4.28-4.791-7.909-8.561-10.432-3.657-2.438-8.05-3.854-12.841-3.854-4.678 0-9.015 1.389-12.643 3.769-3.77 2.467-6.775 5.982-8.589 10.121-.454 1.077-1.162 2.041-2.126 2.834-3.203 2.58-7.909 2.098-10.517-1.105-1.474-1.785-3.316-3.26-5.471-4.28-2.041-.964-4.309-1.502-6.747-1.502-3.345 0-6.406 1.021-8.929 2.75-2.608 1.813-4.621 4.365-5.754 7.369-1.587 4.224-6.52 6.123-10.517 3.997-1.615-.879-3.372-1.559-5.3-2.041zm108.455 453.379c2.41-2.411 4.309-5.33 5.443-8.619h-113.926c1.134 3.289 3.033 6.208 5.443 8.619 4.138 4.138 9.836 6.718 16.101 6.718h70.839c6.264 0 11.961-2.58 16.1-6.718zm-278.677-331.204h45.61l-3.373-61.995h-38.836zm46.432 14.995h-47.254l-2.749 50.372c-.539 13.891-13.097 29.708-22.224 39.488-9.978 10.686-15.902 18.255-15.902 33.705h129.006c0-15.449-5.924-23.018-15.903-33.705-9.185-9.865-21.515-25.37-22.224-39.374zm-23.613 154.349c12.501 0 23.727 6.236 31.748 16.299 7.625 9.553 12.359 22.677 12.359 37.078 0 14.4-4.734 27.525-12.359 37.106-8.022 10.035-19.247 16.27-31.748 16.27s-23.726-6.235-31.748-16.27c-7.654-9.581-12.388-22.706-12.388-37.106s4.734-27.525 12.388-37.078c8.022-10.063 19.247-16.299 31.748-16.299zm20.013 25.596c-5.216-6.548-12.303-10.573-20.013-10.573-7.739 0-14.825 4.025-20.041 10.573-5.612 7.029-9.071 16.867-9.071 27.78 0 10.941 3.459 20.75 9.071 27.78 5.216 6.548 12.302 10.602 20.041 10.602 7.71 0 14.797-4.054 20.013-10.602 5.612-7.03 9.099-16.838 9.099-27.78 0-10.913-3.487-20.75-9.099-27.78zm-84.53 111.942v16.384c0 4.025 1.672 7.682 4.309 10.347 2.665 2.664 6.321 4.309 10.347 4.309h99.695c4.026 0 7.683-1.645 10.347-4.309 2.665-2.665 4.309-6.322 4.309-10.347v-16.384zm38.013-383.872h53.008 5.046v-4.705c0-4.252-1.758-8.136-4.564-10.971-2.834-2.806-6.718-4.564-10.97-4.564h-32.032c-4.28 0-8.164 1.758-10.97 4.564-2.834 2.835-4.564 6.719-4.564 10.971v4.705z"/></g></svg>