<svg id="regular" enable-background="new 0 0 24 24" height="200px" viewBox="0 0 24 24" width="200px" xmlns="http://www.w3.org/2000/svg"><path d="m20 10.25c-.008 0-.016 0-.024 0-.192-.007-.371-.101-.486-.254l-1.084-1.446h-.269c-.82 0-1.488-.667-1.488-1.488v-3.825c0-.82.667-1.487 1.488-1.487h3.975c.82 0 1.488.667 1.488 1.487v3.825c0 .82-.667 1.488-1.488 1.488h-.336l-1.297 1.482c-.12.139-.296.218-.479.218z" fill="#ffc107"/><path d="m3.75 10.25c-.008 0-.016 0-.024 0-.192-.007-.371-.101-.486-.254l-1.084-1.446h-.268c-.821 0-1.488-.667-1.488-1.488v-3.825c0-.82.667-1.487 1.488-1.487h3.975c.82 0 1.487.667 1.487 1.487v3.825c0 .82-.667 1.488-1.487 1.488h-.336l-1.297 1.482c-.121.139-.297.218-.48.218z" fill="#ffc107"/><path d="m12 9.25c-.008 0-.016 0-.024 0-.192-.007-.371-.101-.486-.254l-1.084-1.446h-2.019c-.82 0-1.487-.667-1.487-1.488v-3.825c0-.82.667-1.487 1.487-1.487h7.225c.82 0 1.488.667 1.488 1.487v3.825c0 .82-.667 1.488-1.488 1.488h-1.836l-1.296 1.482c-.121.139-.297.218-.48.218z" fill="#03a9f4"/><circle cx="4" cy="15" fill="#4caf50" r="1.414"/><circle cx="20" cy="15" fill="#4caf50" r="1.25"/><circle cx="12" cy="14.5" fill="#2196f3" r="2.25"/><path d="m14.75 19.75h-5.5c-1.105 0-2 .895-2 2v2.25h9.5v-2.25c0-1.105-.895-2-2-2z" fill="#2196f3"/><path d="m5.25 18.75h-2.5c-1.105 0-2 .895-2 2v1.25h6.5v-1.25c0-1.105-.895-2-2-2z" fill="#4caf50"/><path d="m21.25 18.75h-2.5c-1.105 0-2 .895-2 2v1.25h6.5v-1.25c0-1.105-.895-2-2-2z" fill="#4caf50"/><path d="m12 10c-.009 0-.019 0-.028 0-.226-.009-.436-.119-.572-.3l-1.275-1.7h-2.375c-.965 0-1.75-.785-1.75-1.75v-4.5c0-.965.785-1.75 1.75-1.75h8.5c.965 0 1.75.785 1.75 1.75v4.5c0 .965-.785 1.75-1.75 1.75h-2.16l-1.526 1.744c-.142.163-.348.256-.564.256zm-4.25-8.5c-.138 0-.25.112-.25.25v4.5c0 .138.112.25.25.25h2.75c.236 0 .458.111.6.3l.945 1.26 1.141-1.303c.142-.164.348-.257.564-.257h2.5c.138 0 .25-.112.25-.25v-4.5c0-.138-.112-.25-.25-.25z"/><path d="m20 11c-.01 0-.02 0-.029 0-.227-.009-.437-.12-.572-.301l-.79-1.06c-.248-.332-.179-.802.153-1.05.333-.248.802-.178 1.05.153l.235.316 1.139-1.301c.142-.164.348-.257.564-.257h.5c.136 0 .25-.114.25-.25v-4.5c0-.136-.114-.25-.25-.25h-1.5c-.414 0-.75-.336-.75-.75s.336-.75.75-.75h1.5c.965 0 1.75.785 1.75 1.75v4.5c0 .965-.785 1.75-1.75 1.75h-.16l-1.526 1.744c-.142.163-.348.256-.564.256z"/><path d="m4 11c-.216 0-.422-.093-.564-.256l-1.526-1.744h-.16c-.965 0-1.75-.785-1.75-1.75v-4.5c0-.965.785-1.75 1.75-1.75h1.5c.414 0 .75.336.75.75s-.336.75-.75.75h-1.5c-.136 0-.25.114-.25.25v4.5c0 .136.114.25.25.25h.5c.216 0 .422.093.564.256l1.139 1.301.235-.316c.248-.331.717-.401 1.05-.153.332.248.401.718.153 1.05l-.79 1.06c-.135.182-.345.293-.572.302-.009 0-.019 0-.029 0z"/><path d="m20 17c-1.103 0-2-.897-2-2s.897-2 2-2 2 .897 2 2-.897 2-2 2zm0-2.5c-.276 0-.5.224-.5.5s.224.5.5.5.5-.224.5-.5-.224-.5-.5-.5z"/><path d="m23.25 22c-.414 0-.75-.336-.75-.75v-.5c0-.689-.561-1.25-1.25-1.25h-2.5c-.414 0-.75-.336-.75-.75s.336-.75.75-.75h2.5c1.517 0 2.75 1.233 2.75 2.75v.5c0 .414-.336.75-.75.75z"/><path d="m4 17c-1.103 0-2-.897-2-2s.897-2 2-2 2 .897 2 2-.897 2-2 2zm0-2.5c-.276 0-.5.224-.5.5s.224.5.5.5.5-.224.5-.5-.224-.5-.5-.5z"/><path d="m.75 22c-.414 0-.75-.336-.75-.75v-.5c0-1.517 1.233-2.75 2.75-2.75h2.5c.414 0 .75.336.75.75s-.336.75-.75.75h-2.5c-.689 0-1.25.561-1.25 1.25v.5c0 .414-.336.75-.75.75z"/><path d="m12 17.5c-1.654 0-3-1.346-3-3s1.346-3 3-3 3 1.346 3 3-1.346 3-3 3zm0-4.5c-.827 0-1.5.673-1.5 1.5s.673 1.5 1.5 1.5 1.5-.673 1.5-1.5-.673-1.5-1.5-1.5z"/><path d="m16.75 24c-.414 0-.75-.336-.75-.75v-1.5c0-.689-.561-1.25-1.25-1.25h-5.5c-.689 0-1.25.561-1.25 1.25v1.5c0 .414-.336.75-.75.75s-.75-.336-.75-.75v-1.5c0-1.517 1.233-2.75 2.75-2.75h5.5c1.517 0 2.75 1.233 2.75 2.75v1.5c0 .414-.336.75-.75.75z"/></svg>