<svg enable-background="new 0 0 512 512" height="100px" viewBox="0 0 512 512" width="100px" xmlns="http://www.w3.org/2000/svg"><g id="BULINE"><circle id="XMLID_523_" cx="256" cy="256" fill="#6fc2e5" r="256"/></g><g id="Icons"><g id="XMLID_1359_"><g id="XMLID_1376_"><path id="XMLID_1423_" d="m365.8 487.31c-120.34 57.96-269.358 8.846-333.79-107.27 20.588-35.918 52.209-58.036 90.956-69.47 21.93-6.471 29.894-11.323 29.1-34.697-.401-11.812-5.604-28.451 5.518-34.143 13.514-6.916 41.883-7.472 56.358-4.487 21.67 4.469 4.386 35.157 8.27 50.907 4.906 19.89 30.993 22.529 46.743 30.783 14.807 7.76 28.58 17.522 40.364 29.406 36.583 36.893 48.969 89.182 56.481 138.971-1.1.53-1.8-11.93 0 0z" fill="#ce6f30"/><path id="XMLID_1392_" d="m238.883 343.834h-106.166c-7.318 0-13.25-5.932-13.25-13.25v-48.834c0-7.318 5.932-13.25 13.25-13.25h106.167c7.318 0 13.25 5.932 13.25 13.25v48.833c-.001 7.319-5.933 13.251-13.251 13.251z" fill="#e88032"/><path id="XMLID_1390_" d="m295.699 152.084c0 82.181-49.8 148.803-111.232 148.803s-111.232-66.622-111.232-148.803 48.512-121.417 109.943-121.417 112.521 39.235 112.521 121.417z" fill="#3586cb"/><path id="XMLID_1389_" d="m203.465 298.724c-6.17 1.42-12.52 2.16-19 2.16-61.43 0-111.23-66.62-111.23-148.8s48.51-121.42 109.94-121.42c6.48 0 12.84.44 19.04 1.32-52.16 7.44-90.98 46.59-90.98 120.1s39.85 134.58 92.23 146.64z" fill="#307cb5"/><path id="XMLID_1388_" d="m272.028 160.854-5.04 70.53c-.003.045-.006.089-.01.134-.62 8.425-4.507 16.261-10.569 22.145-12.861 12.483-28.937 22.236-42.531 34.162-16.53 14.47-40.38 14.47-56.91 0-13.359-11.71-29.106-21.333-41.85-33.498-6.238-5.955-10.123-13.977-10.781-22.576-.021-.275-4.629-71.066-4.629-71.066-1.18-18.09 15.74-33.3 37.04-33.3h98.26c21.37-.001 38.32 15.329 37.02 33.469z" fill="#27273d"/><path id="XMLID_1387_" d="m210.366 290.894c-16.22 11.31-37.72 10.29-52.98-3.07-13.36-11.71-29.11-21.33-41.85-33.5-6.24-5.95-10.12-13.98-10.78-22.57-.02-.28-4.63-71.07-4.63-71.07-1.18-18.09 15.74-33.3 37.04-33.3h2.71c-8.35 6.16-13.41 15.42-12.75 25.6 0 0 4.61 70.79 4.63 71.07.66 8.6 4.54 16.62 10.78 22.58 12.74 12.16 28.49 21.78 41.85 33.49 7.6 6.64 16.73 10.24 25.98 10.77z" fill="#1c1c2b"/><path id="XMLID_1386_" d="m199.541 127.386h-27.333v-95.682c0-5.727 4.643-10.37 10.37-10.37h6.593c5.727 0 10.37 4.643 10.37 10.37z" fill="#366fca"/><path id="XMLID_1385_" d="m280.558 143.802v14.269c0 26.103-24.527 47.263-54.782 47.263h-15.852c-4.202 0-8.231-1.44-11.202-4.003-6.187-5.337-16.217-5.337-22.404 0-2.971 2.563-7 4.003-11.202 4.003h-19.131c-30.262 0-54.795-21.165-54.795-47.274v-14.236c0-5.87 4.648-10.961 11.246-12.42 55.918-12.309 111.552-12.32 166.915-.011 6.584 1.459 11.207 6.539 11.207 12.409z" fill="#f7bb38"/><path id="XMLID_1384_" d="m266.067 147.604c0 33.136-19.718 50.338-53.11 49.8-7.685-.124-11.546-2.483-18.855-4.585-10.869-3.126-15.426 2.899-25.805 4.585-12.126 1.97-28.706.064-39.491-5.157-15.777-7.639-24.947-23.027-23.119-40.568 1.983-19.029 25.545-17.464 41.332-19.302 16.358-1.906 119.048-9.787 119.048 15.227z" fill="#7cc8fb"/><path id="XMLID_1383_" d="m198.247 130.324-64.11 64.11c-9.2-3.18-16.9-8.75-21.95-15.76l47.54-47.54c12.86-1.01 25.7-1.28 38.52-.81z" fill="#c7ebff"/><path id="XMLID_1382_" d="m247.207 135.714-55.76 55.76c-1.35-.37-2.77-.55-4.18-.55-3.44 0-6.87 1.08-9.49 3.24-1.25 1.03-2.74 1.85-4.35 2.4s-3.36.84-5.13.84h-5.52l64.73-64.73c6.57.81 13.14 1.82 19.7 3.04z" fill="#c7ebff"/><path id="XMLID_1381_" d="m138.071 413.797-23.324 23.319c-9.235 9.234-24.456 8.352-32.564-1.885l-47.397-59.848c20.88-35.884 50.078-48.675 58.158-53.015l47.156 62.88c6.523 8.697 5.657 20.864-2.029 28.549z" fill="#f7bb38"/><path id="XMLID_1380_" d="m334.997 382.714-41.577 52.513c-8.107 10.24-23.329 11.122-32.565 1.888l-23.323-23.318c-7.686-7.685-8.552-19.851-2.032-28.547l44.857-59.825c23.143 11.075 53.5 55.229 54.64 57.289z" fill="#f7bb38"/><g id="XMLID_1377_" fill="#41c0e3"><circle id="XMLID_1379_" cx="260.443" cy="80.587" r="8.946"/><circle id="XMLID_1378_" cx="247.493" cy="64.211" r="7.01"/></g></g><g id="XMLID_1360_"><path id="XMLID_1475_" d="m497.81 136.42c.628 28.672-12.734 56.395-20.738 83.329-13.903 46.779-25.458 94.258-34.654 142.184-4.39 22.879-8.231 45.867-11.529 68.929-1.313 9.183-.748 11.399-6.648 18.096-3.393 3.852-8.26 6.947-12.295 10.05-8.417 6.475-17.218 12.415-26.372 17.797-38.245 22.486-82.21 34.73-126.584 35.174 21.355-75.35 37.144-152.233 46.854-229.952 4.92-39.38 8.282-78.963 10.086-118.608.802-17.637.349-35.342 5.84-52.32 16.021-49.536 66.158-73.65 115.14-59.15 36.586 10.831 59.821 47.278 60.9 84.471.03 1.37-.02-.69 0 0 .628 28.672-.02-.69 0 0z" fill="#3586cb"/><path id="XMLID_1482_" d="m438.79 52.53c-43.462-2.158-80.379 33.718-88.884 74.551-4.431 21.274-3.031 44.392-4.373 66.06-1.74 28.112-4.246 56.173-7.545 84.145-5.294 44.887-12.596 89.538-21.852 133.778-4.306 20.584-19.053 80.362-21.618 89.772-2.546 9.342-3.278 8.92-12.937 9.877-7.511.744-15.043 1.191-22.592 1.267 30.909-109.061 50-221.313 56.23-334.516 2.074-37.683.506-74.264 29.02-103.634 25.488-26.252 60.655-31.481 94.551-21.3-43.462-2.158-33.896-10.181 0 0z" fill="#366fca"/><path id="XMLID_1373_" d="m475.175 226.204c-13.738 47.035-25.086 94.565-34.057 142.587l-35.904-24.07c-10.141-6.799-23.38-6.814-33.536-.039l-35.478 23.665c-7.366 4.914-17.333 2.804-22.077-4.673l-16.32-25.723c8.288-50.881 13.977-102.133 17.042-153.791l50.44-24.922c12.047-5.952 25.545 4.918 22.298 17.957l-6.147 24.683c-2.257 9.065 6.892 16.765 15.438 12.992l23.317-10.293c10.708-4.727 22.654 3.443 22.132 15.136l-.437 9.788c-.364 8.153 8.71 13.246 15.481 8.688z" fill="#32314b"/><path id="XMLID_1372_" d="m324.02 370.63c-3.944-.885-7.552-3.26-9.9-6.949l-16.319-25.729c8.288-50.881 13.977-102.133 17.042-153.791l32.031-15.83c-.326 7.099-.697 14.205-1.122 21.287-3.065 51.658-8.754 102.911-17.042 153.791-1.474 9.085-3.034 18.168-4.69 27.221z" fill="#27273d"/><path id="XMLID_692_" d="m404.29 464.7c-12.09 8.6-24.96 16.19-38.49 22.61-1.1.53-2.21 1.05-3.32 1.55l-54.97-39.14-27.61-19.66c3.54-15.6 6.82-31.25 9.85-46.92l28.03 19.96.69.49z" fill="#cd88f8"/><path id="XMLID_517_" d="m315.05 505.15c-7.51 1.78-15.15 3.22-22.91 4.32-6.99.99-14.07 1.69-21.23 2.1l-9.83-7c2.95-10.58 5.78-21.18 8.51-31.79z" fill="#cd88f8"/><path id="XMLID_1369_" d="m317.78 403.096c-2.201 10.825-4.531 21.641-6.971 32.424-1.068 4.737-2.165 9.469-3.303 14.194l-27.606-19.652c3.537-15.602 6.821-31.248 9.85-46.925z" fill="#bc6cf4"/><path id="XMLID_514_" d="m296.85 492.18v.01c-1.54 5.76-3.1 11.54-4.71 17.28-6.99.99-14.07 1.69-21.23 2.1l-9.83-7c2.95-10.58 5.78-21.18 8.51-31.79z" fill="#bc6cf4"/><path id="XMLID_1365_" d="m492.337 171.414c-.37 1.108-.742 2.231-1.111 3.339-.052-5.123-.528-10.22-1.437-15.248-6.588-36.455-32.626-65.972-68.073-72.231l-9.694-1.712c-35.433-6.256-70.003 12.544-88.686 44.508-2.616 4.478-4.824 9.188-6.654 14.052.055-1.294.095-2.591.136-3.888.515-16.7 4.783-33.245 13.111-47.508 18.685-31.978 53.252-50.765 88.686-44.508l9.694 1.712c35.447 6.259 61.486 35.775 68.076 72.216 2.958 16.314 1.265 33.372-4.048 49.268-.37 1.108 5.313-15.896 0 0z" fill="#32314b"/><path id="XMLID_1364_" d="m438.788 52.534c-29.134-1.073-56.614 14.256-73.863 39.244-16.895 7.723-31.542 21.102-41.59 38.293-2.616 4.478-4.824 9.188-6.654 14.052.055-1.294.095-2.591.136-3.888.515-16.7 4.783-33.245 13.111-47.508 18.685-31.978 53.252-50.765 88.686-44.508 6.774 1.195 13.608 2.2 20.174 4.315-29.134-1.073-3.386-1.091 0 0z" fill="#27273d"/><g id="XMLID_1361_" fill="#52a2dd"><circle id="XMLID_1363_" cx="458.612" cy="182.325" r="12.763"/><circle id="XMLID_1362_" cx="463.791" cy="152.993" r="10.002"/></g></g></g></g></svg>