<svg enable-background="new 0 0 512 512" height="100px" viewBox="0 0 512 512" width="100px" xmlns="http://www.w3.org/2000/svg"><g id="BULINE"><circle id="XMLID_247_" cx="256" cy="256" fill="#934cf5" r="256"/></g><g id="Icons"><g id="XMLID_271_"><path id="XMLID_1278_" d="m389.752 224.136s57.852 22.029 79.852 104.014l-14.099-4.681s14.9 49.222-12.91 81.047l-65.509-64.711-28.701-45.223z" fill="#27273d"/><path id="XMLID_1277_" d="m251.762 224.136s-57.852 22.029-79.852 104.014l14.099-4.681s-14.9 49.222 12.91 81.047l65.509-64.711 28.701-45.223z" fill="#27273d"/><path id="XMLID_1276_" d="m226.094 436.26-35.72 67.13c-5.77-1.53-11.46-3.27-17.07-5.19-.32-.11-.64-.22-.96-.34-2.98-1.03-5.94-2.12-8.87-3.26-5.96-2.32-11.82-4.87-17.55-7.62-4.96-2.37-9.83-4.9-14.61-7.59-5.77-3.23-11.4-6.69-16.88-10.35-5.29-3.53-10.44-7.25-15.44-11.16-6.86-5.35-13.43-11.04-19.7-17.05-5.52-5.3-10.8-10.83-15.83-16.6-1.46-.09-2.88-.34-4.24-.74l1.38-2.59 12.14-22.82v-.01l13.26-24.91v-.01l4.75-8.91 18.31 9.74 5.37 2.86 9.1 4.84 1.58.84 5.23 2.79.97.51 41.99 22.35 16.35 8.7.93.49z" fill="#41c0e3"/><g id="XMLID_1266_"><path id="XMLID_1275_" d="m145.924 486.98c-4.96-2.37-9.83-4.9-14.61-7.59-5.77-3.23-11.4-6.69-16.88-10.35-5.29-3.53-10.44-7.25-15.44-11.16-6.86-5.35-13.43-11.04-19.7-17.05l-2.69-17.6-.64-4.17-3.22-20.98v-.01l-4.74-30.94-6.95-45.39-4.2-27.38-7.96-51.93-9.96-65.02c-1.4-9.15-.2-18.51 3.46-27.01l11.54-26.79c2.23-5.16 9.09-6.21 12.77-1.95l2.44 2.84 16.59 19.26c6.03 7.01 9.98 15.59 11.39 24.73l9 58.77 8.31 54.2 2.84 18.57 4.7 30.67 3.26 21.27 3.73 24.28v.01l1.38 9.05.97 6.31z" fill="#fc4581"/><path id="XMLID_1274_" d="m98.994 457.88c-6.86-5.35-13.43-11.04-19.7-17.05l-2.69-17.6-.64-4.17-3.22-20.98v-.01l-4.74-30.94-6.95-45.39-4.2-27.38-7.96-51.93-9.96-65.02c-1.4-9.15-.2-18.51 3.46-27.01l11.54-26.79c2.23-5.16 9.09-6.21 12.77-1.95l2.44 2.84-10.07 23.34c-3.66 8.5-4.86 17.86-3.46 27.01l7.41 48.34 7.96 51.93 7.9 51.57 3.01 19.64.24 1.56 1.17 7.66 2.7 17.6v.01l4.09 26.66 3.35 21.84z" fill="#dd3e78"/><path id="XMLID_1273_" d="m98.168 175.33 7.957 51.93-49.269 67.101-7.958-51.929z" fill="#fff"/><path id="XMLID_1272_" d="m117.277 300.033 7.958 51.94-49.271 67.091-7.957-51.929z" fill="#fff"/><path id="XMLID_1271_" d="m63.026 223.191 7.957 51.93-14.127 19.24-7.958-51.929z" fill="#dbdbdb"/><path id="XMLID_1270_" d="m82.134 347.894 7.958 51.929-14.128 19.241-7.957-51.929z" fill="#dbdbdb"/><g id="XMLID_1267_" fill="#fc72a4"><circle id="XMLID_1269_" cx="77.831" cy="174.624" r="9.437"/><circle id="XMLID_1268_" cx="74.495" cy="152.854" r="7.395"/></g></g><path id="XMLID_1264_" d="m449.634 423.94c-49.976 57.479-124.238 89.974-200.334 87.963-18.816-.497-37.564-3.113-55.808-7.724-6.975-1.763-13.865-3.807-20.668-6.149-12.053-4.148-8.896-7.251-5.981-19.113 7.616-30.995 20.032-62.589 38.286-88.952 8.528-12.317 19.243-23.301 31.705-31.675 17.108-11.496 138.544-13.157 148.48-8.22 30.83 15.318 52.928 41.447 64.32 73.87-13.72 15.78-.13-.37 0 0z" fill="#41c0e3"/><path id="XMLID_1263_" d="m332.004 352.06v148.6c-6.41 1.98-12.92 3.71-19.54 5.18v-153.78z" fill="#3586cb"/><path id="XMLID_1262_" d="m417.48 149.899c0 20.348.192 40.704 0 61.051-.298 31.677-14.893 52.06-39.16 71.026-16.026 12.525-33.049 31.476-54.611 32.318-24.777.967-51.774-25.977-69.033-41.441-23.615-21.158-28.027-44.917-28.027-74.878 0-23.302-2.935-49.54 3.17-72.287 8.019-29.876 31.577-54.983 62.134-62.134 59.677-13.966 125.527 18.645 125.527 86.345z" fill="#fcc8bc"/><path id="XMLID_1261_" d="m331.342 303.328c3.029 2.66 6.319 4.842 9.75 6.525-20.932 10.165-39.171.092-55.956-13.234-11.384-9.038-23.669-17.037-34.167-27.153-6.44-6.206-12.144-13.063-16.342-20.987-.8-1.509-10.337-28.271-7.804-28.271-.858-12.642-.174-25.52-.174-38.184h.011c0-32.505-.955-64.645 20.986-90.785 23.564-28.072 58.811-33.203 93.445-29.455-32.963 2.887-60.626 26.824-71.29 57.681-6.933 20.06-5.067 41.992-5.067 62.884 0 20.011-2.489 42.413 5.552 61.227 11.676 27.314 39.767 41.105 61.056 59.752 3.029 2.66-28.087-24.602 0 0z" fill="#fab3a7"/><path id="XMLID_1260_" d="m330.762 230.728h-18.097c-2.662 0-4.821-2.158-4.821-4.821v-.874c0-2.662 2.158-4.821 4.821-4.821h18.097c2.662 0 4.821 2.158 4.821 4.821v.874c0 2.662-2.158 4.821-4.821 4.821z" fill="#fab3a7"/><path id="XMLID_1259_" d="m408.914 299.778v44.242c0 5.32-3.311 10.108-8.316 11.888-19.38 6.905-38.737 11.28-58.084 13.093-13.875 1.303-27.739 1.303-41.603-.022-19.162-1.824-38.303-6.167-57.422-13.05-4.983-1.802-8.284-6.579-8.284-11.877v-44.274c0-5.407 4.386-9.782 9.782-9.782h154.157c5.395 0 9.77 4.375 9.77 9.782z" fill="#7cc8fb"/><path id="XMLID_1258_" d="m342.514 289.996v79.005c-13.875 1.303-27.739 1.303-41.603-.022v-78.984h41.603z" fill="#f6c752"/><path id="XMLID_1257_" d="m283.864 438.47v72.07c-16.141 1.736-32.482 1.93-48.66.59 0-20.43 3.428-44.45-2.251-64.325-4.56-15.957-32.481-42.227-28.339-56.085 2.299-7.692 12.645-16.113 18.42-21.44 8.505-7.844 9.691-10.592 17.711-1.854 18.929 20.624 43.119 40.596 43.119 71.044z" fill="#fff"/><path id="XMLID_1256_" d="m435.344 394.35c-7.607 12.291-15.783 24.347-22.954 36.898-3.044 5.328-5.71 10.592-7.303 16.578-1.212 4.556.142 13.421-1.973 17.254-6.571 11.913-36.374 22.379-48.67 27.48 0-34.017-5.823-70.321 18.094-97.858 5.107-5.88 10.551-11.499 15.816-17.238 2.52-2.747 10.79-15.264 14.762-16.089 8.982-1.865 27.899 26.099 32.228 32.975z" fill="#fff"/><path id="XMLID_1255_" d="m405.295 459.704h-52.837c-1.999 0-3.619-1.62-3.619-3.619v-10.75c0-1.999 1.62-3.619 3.619-3.619h52.837c1.999 0 3.619 1.62 3.619 3.619v10.75c0 1.999-1.62 3.619-3.619 3.619z" fill="#f6c752"/><path id="XMLID_1254_" d="m428.014 158.21h-213.002c-4.81 0-8.71-3.9-8.71-8.71v-30.287c0-4.81 3.9-8.71 8.71-8.71h213.002c4.81 0 8.71 3.9 8.71 8.71v30.287c0 4.811-3.899 8.71-8.71 8.71z" fill="#fc4581"/><g fill="#dd3e78"><path id="XMLID_1252_" d="m223.92 149.922c-3.48 0-6.301-2.821-6.301-6.301v-18.529c0-3.48 2.821-6.301 6.301-6.301 3.48 0 6.301 2.821 6.301 6.301v18.529c0 3.48-2.821 6.301-6.301 6.301z"/><path id="XMLID_1251_" d="m248.469 149.922c-3.48 0-6.301-2.821-6.301-6.301v-18.529c0-3.48 2.821-6.301 6.301-6.301 3.48 0 6.301 2.821 6.301 6.301v18.529c0 3.48-2.821 6.301-6.301 6.301z"/><path id="XMLID_1249_" d="m273.019 149.922c-3.48 0-6.301-2.821-6.301-6.301v-18.529c0-3.48 2.821-6.301 6.301-6.301 3.48 0 6.301 2.821 6.301 6.301v18.529c-.001 3.48-2.822 6.301-6.301 6.301z"/><path id="XMLID_1248_" d="m297.568 149.922c-3.48 0-6.301-2.821-6.301-6.301v-18.529c0-3.48 2.821-6.301 6.301-6.301 3.48 0 6.301 2.821 6.301 6.301v18.529c0 3.48-2.821 6.301-6.301 6.301z"/><path id="XMLID_1221_" d="m322.117 149.922c-3.48 0-6.301-2.821-6.301-6.301v-18.529c0-3.48 2.821-6.301 6.301-6.301 3.48 0 6.301 2.821 6.301 6.301v18.529c0 3.48-2.821 6.301-6.301 6.301z"/><path id="XMLID_1220_" d="m346.666 149.922c-3.48 0-6.301-2.821-6.301-6.301v-18.529c0-3.48 2.821-6.301 6.301-6.301 3.48 0 6.301 2.821 6.301 6.301v18.529c0 3.48-2.821 6.301-6.301 6.301z"/><path id="XMLID_1209_" d="m371.215 149.922c-3.48 0-6.301-2.821-6.301-6.301v-18.529c0-3.48 2.821-6.301 6.301-6.301 3.48 0 6.301 2.821 6.301 6.301v18.529c0 3.48-2.821 6.301-6.301 6.301z"/><path id="XMLID_1203_" d="m395.764 149.922c-3.48 0-6.301-2.821-6.301-6.301v-18.529c0-3.48 2.821-6.301 6.301-6.301 3.48 0 6.301 2.821 6.301 6.301v18.529c0 3.48-2.821 6.301-6.301 6.301z"/><path id="XMLID_1202_" d="m420.314 149.922c-3.48 0-6.301-2.821-6.301-6.301v-18.529c0-3.48 2.821-6.301 6.301-6.301 3.48 0 6.301 2.821 6.301 6.301v18.529c0 3.48-2.822 6.301-6.301 6.301z"/></g><path id="XMLID_1200_" d="m352.07 36.071h-62.626c-41.108 0-74.432 33.324-74.432 74.432h211.49c0-41.108-33.325-74.432-74.432-74.432z" fill="#fc4581"/><path id="XMLID_1199_" d="m426.502 110.506h-211.49c0-32.259 20.512-59.72 49.22-70.053-.147.136-.293.272-.439.409-20.681 19.42-6.634 54.203 21.737 54.203h139.369c1.044 4.977 1.603 10.144 1.603 15.441z" fill="#dd3e78"/><g id="XMLID_462_" fill="#fc72a4"><circle id="XMLID_464_" cx="396.764" cy="71.542" r="10.625"/><circle id="XMLID_463_" cx="375.554" cy="58.695" r="8.326"/></g><circle id="XMLID_461_" cx="417.584" cy="187.971" fill="#fcc8bc" r="20.483"/><path id="XMLID_460_" d="m417.586 196.119c4.5 0 8.147-3.648 8.147-8.147 0-4.5-3.648-8.147-8.147-8.147z" fill="#fab3a7"/><circle id="XMLID_459_" cx="226.546" cy="187.971" fill="#fab3a7" r="20.483"/><path id="XMLID_458_" d="m226.544 179.824c-4.5 0-8.147 3.648-8.147 8.147 0 4.5 3.648 8.147 8.147 8.147z" fill="#f9988c"/><path id="XMLID_457_" d="m243.239 158.21s-.195 32.031-16.692 50.244v-50.244z" fill="#32314b"/><path id="XMLID_456_" d="m401.654 158.21s.195 32.031 16.692 50.244v-50.244z" fill="#32314b"/><path id="XMLID_455_" d="m410 158.215v25.752c0 16.687-13.528 30.215-30.225 30.215h-33.113c-.347 0-.695-.011-1.042-.022-4.929-.174-9.717-1.563-13.94-4.006-1.574-.923-3.083-1.998-4.484-3.203l-1.998-1.705c-1.998-1.726-4.972-1.726-6.97 0l-1.976 1.705c-5.428 4.669-12.333 7.231-19.488 7.231h-31.648c-2.139 0-4.223-.217-6.232-.651-8.609-1.791-15.862-7.252-20.053-14.668-2.508-4.397-3.941-9.489-3.941-14.907v-25.742h175.11z" fill="#7cc8fb"/><path id="XMLID_454_" d="m314.199 158.215-55.316 55.316c-8.609-1.791-15.862-7.252-20.053-14.668l40.648-40.648z" fill="#a5dbf9"/><path id="XMLID_453_" d="m401.564 158.215-55.945 55.945c-4.929-.174-9.717-1.563-13.94-4.006l51.939-51.939z" fill="#a5dbf9"/><g id="XMLID_452_"><path id="XMLID_2304_" d="m297.165 178.396c-.65 0-1.307-.181-1.894-.56-18.717-12.076-41.032-.004-41.254.12-1.689.933-3.82.324-4.756-1.364-.937-1.688-.333-3.815 1.354-4.754 1.057-.589 26.158-14.265 48.451.117 1.624 1.048 2.091 3.214 1.043 4.838-.669 1.037-1.795 1.603-2.944 1.603z" fill="#27273d"/></g><ellipse id="XMLID_381_" cx="274.423" cy="198.817" fill="#27273d" rx="7.977" ry="11.483"/><g id="XMLID_380_"><path id="XMLID_2303_" d="m389.892 178.396c-.65 0-1.307-.181-1.894-.56-18.717-12.076-41.032-.004-41.254.12-1.689.933-3.819.324-4.756-1.364s-.333-3.815 1.354-4.754c1.058-.589 26.159-14.265 48.451.117 1.624 1.048 2.091 3.214 1.043 4.838-.669 1.037-1.794 1.603-2.944 1.603z" fill="#27273d"/></g><ellipse id="XMLID_346_" cx="367.15" cy="198.817" fill="#27273d" rx="7.977" ry="11.483"/><g id="XMLID_345_"><path id="XMLID_2302_" d="m288.924 193.856c-.589 0-1.185-.148-1.733-.461-13.25-7.572-25.283-.156-25.403-.08-1.635 1.033-3.796.544-4.828-1.09s-.544-3.796 1.09-4.828c.635-.401 15.754-9.713 32.614-.08 1.679.959 2.262 3.097 1.303 4.775-.646 1.131-1.827 1.764-3.043 1.764z" fill="#27273d"/></g><g id="XMLID_344_"><path id="XMLID_2301_" d="m381.651 193.856c-.589 0-1.185-.148-1.733-.461-13.251-7.572-25.283-.156-25.403-.08-1.635 1.033-3.796.544-4.828-1.09s-.544-3.796 1.09-4.828c.636-.401 15.754-9.713 32.614-.08 1.679.959 2.262 3.097 1.303 4.775-.646 1.131-1.827 1.764-3.043 1.764z" fill="#27273d"/></g><g id="XMLID_279_"><path id="XMLID_343_" d="m173.304 146.3v351.9c-.32-.11-.64-.22-.96-.34-2.98-1.03-5.94-2.12-8.87-3.26-5.96-2.32-11.82-4.87-17.55-7.62-4.96-2.37-9.83-4.9-14.61-7.59-5.77-3.23-11.4-6.69-16.88-10.35v-322.74c0-9.26 2.61-18.33 7.51-26.18l15.47-24.72c2.98-4.77 9.93-4.77 12.91 0l1.98 3.17 13.49 21.55c4.9 7.85 7.51 16.92 7.51 26.18z" fill="#fc4581"/><path id="XMLID_342_" d="m152.304 98.57-13.48 21.55c-4.9 7.85-7.51 16.92-7.51 26.18v333.09c-5.77-3.23-11.4-6.69-16.88-10.35v-322.74c0-9.26 2.61-18.33 7.51-26.18l15.47-24.72c2.98-4.77 9.93-4.77 12.91 0z" fill="#dd3e78"/><path id="XMLID_341_" d="m173.301 153.217v52.535l-58.865 58.865v-52.536z" fill="#fff"/><path id="XMLID_340_" d="m173.301 279.375v52.546l-58.865 58.854v-52.535z" fill="#fff"/><path id="XMLID_339_" d="m131.315 195.203v52.535l-16.879 16.879v-52.536z" fill="#dbdbdb"/><path id="XMLID_338_" d="m131.315 321.361v52.535l-16.879 16.879v-52.535z" fill="#dbdbdb"/><g id="XMLID_281_" fill="#fc72a4"><circle id="XMLID_337_" cx="153.305" cy="149.438" r="9.437"/><circle id="XMLID_282_" cx="153.305" cy="127.414" r="7.395"/></g></g><path id="XMLID_278_" d="m125.234 385.08v7.99c0 8.95-4.19 16.99-10.8 22.16-4.11 3.22-9.17 5.33-14.72 5.85l-6.27.58-16.84 1.57-10.29.95c-.96.09-1.92.1-2.85.05-1.46-.09-2.88-.34-4.24-.74-7.76-2.29-13.52-9.47-13.52-18.1v-32.62c0-7.58 4.44-14.03 10.77-17.04v-27.58c0-2.98 1.91-5.5 4.58-6.41.69-.25 1.43-.38 2.21-.38h4.63c4.46 0 8.43 2.08 10.99 5.33 1.88 2.38 3.01 5.39 3.01 8.66v20.07l1.41.13 16.41 1.53c5.55.51 10.61 2.62 14.72 5.85.59.46 1.15.94 1.69 1.44 4.52 4.14 7.66 9.74 8.71 16.01.13.7.22 1.42.28 2.14.08.84.12 1.7.12 2.56z" fill="#db1b1b"/><g id="XMLID_272_"><path id="XMLID_1250_" d="m299.77 249.239c0 11.869 10.487 23.396 23.423 23.396 12.936 0 21.635-11.527 21.635-23.396z" fill="#fff"/><g fill="#db1b1b"><path id="XMLID_277_" d="m345.66 249.239c0 6.475-2.616 12.838-6.863 17.606-4.235 4.756-10.1 7.894-16.563 7.894-12.938 0-23.426-12.561-23.426-25.499h1.364c3.237 9.601 11.896 17.373 22.062 17.373 6.464 0 12.328-3.138 16.563-7.905 2.428-2.716 4.324-5.976 5.499-9.468h1.364z"/><path id="XMLID_276_" d="m322.234 243.141c-12.52-2.033-23.423 6.098-23.423 6.098h23.423 23.423s-10.903-8.131-23.423-6.098z"/></g></g></g></g></svg>